<svg xmlns="http://www.w3.org/2000/svg" xmlns:xlink="http://www.w3.org/1999/xlink" width="177" zoomAndPan="magnify" viewBox="0 0 132.75 54.75" height="73" preserveAspectRatio="xMidYMid meet" version="1.0"><defs><g/><clipPath id="e8253db3d0"><path d="M 25 32 L 44.449219 32 L 44.449219 38 L 25 38 Z M 25 32 " clip-rule="nonzero"/></clipPath><clipPath id="6eaba522d6"><path d="M 5.628906 32 L 25 32 L 25 38 L 5.628906 38 Z M 5.628906 32 " clip-rule="nonzero"/></clipPath><clipPath id="5dbdf9a17c"><path d="M 15 16.351562 L 35 16.351562 L 35 29 L 15 29 Z M 15 16.351562 " clip-rule="nonzero"/></clipPath></defs><g clip-path="url(#e8253db3d0)"><path fill="#0071bc" d="M 27.101562 35.988281 C 33.707031 32.742188 39.699219 32.171875 42.671875 32.121094 C 43.75 32.105469 44.628906 32.984375 44.605469 34.0625 C 44.585938 35.070312 43.78125 35.886719 42.773438 35.921875 C 34.105469 36.230469 25.570312 38.140625 25.570312 38.140625 C 25.539062 37.15625 25.570312 36.921875 25.570312 36.921875 C 25.722656 36.503906 27.101562 35.988281 27.101562 35.988281 " fill-opacity="1" fill-rule="nonzero"/></g><path fill="#0071bc" d="M 26.441406 33.882812 C 30.394531 30.589844 34.371094 29.214844 36.382812 28.691406 C 37.109375 28.503906 37.851562 28.957031 38.015625 29.691406 C 38.167969 30.378906 37.753906 31.066406 37.078125 31.257812 C 31.238281 32.894531 25.757812 35.59375 25.757812 35.59375 C 25.574219 34.933594 25.558594 34.769531 25.558594 34.769531 C 25.589844 34.457031 26.441406 33.882812 26.441406 33.882812 " fill-opacity="1" fill-rule="nonzero"/><g clip-path="url(#6eaba522d6)"><path fill="#47ae6a" d="M 23.164062 35.988281 C 16.558594 32.742188 10.566406 32.171875 7.589844 32.121094 C 6.511719 32.105469 5.636719 32.984375 5.65625 34.0625 C 5.675781 35.070312 6.480469 35.886719 7.488281 35.921875 C 16.15625 36.230469 24.691406 38.140625 24.691406 38.140625 C 24.722656 37.15625 24.691406 36.921875 24.691406 36.921875 C 24.542969 36.503906 23.164062 35.988281 23.164062 35.988281 " fill-opacity="1" fill-rule="nonzero"/></g><path fill="#47ae6a" d="M 23.820312 33.882812 C 19.871094 30.589844 15.894531 29.214844 13.882812 28.691406 C 13.152344 28.503906 12.414062 28.957031 12.25 29.691406 C 12.097656 30.378906 12.507812 31.066406 13.1875 31.257812 C 19.023438 32.894531 24.507812 35.59375 24.507812 35.59375 C 24.691406 34.933594 24.707031 34.769531 24.707031 34.769531 C 24.675781 34.457031 23.820312 33.882812 23.820312 33.882812 " fill-opacity="1" fill-rule="nonzero"/><g clip-path="url(#5dbdf9a17c)"><path fill="#090761" d="M 34.585938 22.953125 L 29.792969 25.410156 L 29.804688 28.167969 L 29.773438 28.175781 L 29.773438 28.238281 L 29.332031 28.234375 L 25.152344 28.804688 L 20.488281 28.238281 L 20.488281 28.167969 L 20.457031 28.167969 L 20.46875 25.347656 L 15.699219 22.816406 C 15.691406 22.808594 15.679688 22.804688 15.671875 22.796875 L 15.660156 24.191406 C 15.824219 24.230469 15.941406 24.335938 15.9375 24.457031 L 15.917969 27.28125 C 15.917969 27.4375 15.726562 27.5625 15.492188 27.558594 C 15.257812 27.558594 15.066406 27.429688 15.070312 27.277344 L 15.089844 24.453125 C 15.089844 24.328125 15.207031 24.226562 15.371094 24.1875 L 15.386719 22.375 C 15.347656 22.140625 15.445312 21.886719 15.683594 21.75 L 18.054688 20.378906 L 20.304688 19.078125 L 21.832031 18.195312 L 24.082031 16.894531 L 24.882812 16.433594 C 24.976562 16.378906 25.085938 16.351562 25.191406 16.351562 C 25.296875 16.351562 25.40625 16.378906 25.5 16.4375 L 25.605469 16.5 L 27.855469 17.84375 L 29.382812 18.757812 L 31.632812 20.101562 L 34.621094 21.886719 C 35.03125 22.132812 35.015625 22.734375 34.585938 22.953125 " fill-opacity="1" fill-rule="nonzero"/></g><path fill="#090761" d="M 25.152344 28.804688 L 25.199219 22.207031 L 29.800781 23.886719 L 29.769531 28.242188 L 25.152344 28.804688 " fill-opacity="1" fill-rule="nonzero"/><g fill="#090761" fill-opacity="1"><g transform="translate(50.15006, 30.564502)"><g><path d="M 6.546875 -5.21875 C 6.546875 -4.769531 6.441406 -4.359375 6.234375 -3.984375 C 6.035156 -3.617188 5.722656 -3.320312 5.296875 -3.09375 C 4.867188 -2.875 4.34375 -2.765625 3.71875 -2.765625 L 2.5625 -2.765625 L 2.5625 0 L 0.6875 0 L 0.6875 -7.703125 L 3.71875 -7.703125 C 4.332031 -7.703125 4.847656 -7.59375 5.265625 -7.375 C 5.691406 -7.164062 6.007812 -6.875 6.21875 -6.5 C 6.4375 -6.125 6.546875 -5.695312 6.546875 -5.21875 Z M 3.578125 -4.25 C 3.929688 -4.25 4.195312 -4.332031 4.375 -4.5 C 4.550781 -4.675781 4.640625 -4.914062 4.640625 -5.21875 C 4.640625 -5.53125 4.550781 -5.769531 4.375 -5.9375 C 4.195312 -6.101562 3.929688 -6.1875 3.578125 -6.1875 L 2.5625 -6.1875 L 2.5625 -4.25 Z M 3.578125 -4.25 "/></g></g></g><g fill="#090761" fill-opacity="1"><g transform="translate(56.988215, 30.564502)"><g><path d="M 5.46875 -1.359375 L 2.59375 -1.359375 L 2.140625 0 L 0.171875 0 L 2.96875 -7.703125 L 5.140625 -7.703125 L 7.921875 0 L 5.9375 0 Z M 4.984375 -2.8125 L 4.03125 -5.625 L 3.09375 -2.8125 Z M 4.984375 -2.8125 "/></g></g></g><g fill="#090761" fill-opacity="1"><g transform="translate(65.064691, 30.564502)"><g><path d="M 5.46875 -1.359375 L 2.59375 -1.359375 L 2.140625 0 L 0.171875 0 L 2.96875 -7.703125 L 5.140625 -7.703125 L 7.921875 0 L 5.9375 0 Z M 4.984375 -2.8125 L 4.03125 -5.625 L 3.09375 -2.8125 Z M 4.984375 -2.8125 "/></g></g></g><g fill="#090761" fill-opacity="1"><g transform="translate(73.141166, 30.564502)"><g><path d="M 6.21875 -7.703125 L 6.21875 -6.203125 L 4.171875 -6.203125 L 4.171875 0 L 2.296875 0 L 2.296875 -6.203125 L 0.265625 -6.203125 L 0.265625 -7.703125 Z M 6.21875 -7.703125 "/></g></g></g><g fill="#090761" fill-opacity="1"><g transform="translate(79.617687, 30.564502)"><g><path d="M 7.34375 -7.703125 L 7.34375 0 L 5.46875 0 L 5.46875 -3.171875 L 2.5625 -3.171875 L 2.5625 0 L 0.6875 0 L 0.6875 -7.703125 L 2.5625 -7.703125 L 2.5625 -4.6875 L 5.46875 -4.6875 L 5.46875 -7.703125 Z M 7.34375 -7.703125 "/></g></g></g><g fill="#090761" fill-opacity="1"><g transform="translate(87.628407, 30.564502)"><g><path d="M 3.46875 0.078125 C 2.90625 0.078125 2.398438 -0.0078125 1.953125 -0.1875 C 1.503906 -0.375 1.144531 -0.644531 0.875 -1 C 0.613281 -1.363281 0.472656 -1.796875 0.453125 -2.296875 L 2.453125 -2.296875 C 2.484375 -2.015625 2.582031 -1.796875 2.75 -1.640625 C 2.914062 -1.492188 3.132812 -1.421875 3.40625 -1.421875 C 3.6875 -1.421875 3.90625 -1.484375 4.0625 -1.609375 C 4.226562 -1.742188 4.3125 -1.925781 4.3125 -2.15625 C 4.3125 -2.34375 4.242188 -2.5 4.109375 -2.625 C 3.984375 -2.75 3.828125 -2.847656 3.640625 -2.921875 C 3.460938 -3.003906 3.203125 -3.097656 2.859375 -3.203125 C 2.359375 -3.359375 1.945312 -3.507812 1.625 -3.65625 C 1.3125 -3.8125 1.039062 -4.039062 0.8125 -4.34375 C 0.59375 -4.644531 0.484375 -5.035156 0.484375 -5.515625 C 0.484375 -6.234375 0.742188 -6.796875 1.265625 -7.203125 C 1.785156 -7.609375 2.460938 -7.8125 3.296875 -7.8125 C 4.140625 -7.8125 4.820312 -7.609375 5.34375 -7.203125 C 5.863281 -6.796875 6.140625 -6.226562 6.171875 -5.5 L 4.140625 -5.5 C 4.128906 -5.75 4.039062 -5.945312 3.875 -6.09375 C 3.707031 -6.238281 3.488281 -6.3125 3.21875 -6.3125 C 3 -6.3125 2.816406 -6.25 2.671875 -6.125 C 2.535156 -6 2.46875 -5.828125 2.46875 -5.609375 C 2.46875 -5.359375 2.582031 -5.160156 2.8125 -5.015625 C 3.050781 -4.878906 3.421875 -4.734375 3.921875 -4.578125 C 4.410156 -4.410156 4.8125 -4.25 5.125 -4.09375 C 5.4375 -3.9375 5.707031 -3.710938 5.9375 -3.421875 C 6.164062 -3.128906 6.28125 -2.753906 6.28125 -2.296875 C 6.28125 -1.859375 6.164062 -1.457031 5.9375 -1.09375 C 5.71875 -0.738281 5.394531 -0.453125 4.96875 -0.234375 C 4.539062 -0.0234375 4.039062 0.078125 3.46875 0.078125 Z M 3.46875 0.078125 "/></g></g></g><g fill="#090761" fill-opacity="1"><g transform="translate(94.367939, 30.564502)"><g><path d="M 7.34375 -7.703125 L 7.34375 0 L 5.46875 0 L 5.46875 -3.171875 L 2.5625 -3.171875 L 2.5625 0 L 0.6875 0 L 0.6875 -7.703125 L 2.5625 -7.703125 L 2.5625 -4.6875 L 5.46875 -4.6875 L 5.46875 -7.703125 Z M 7.34375 -7.703125 "/></g></g></g><g fill="#090761" fill-opacity="1"><g transform="translate(102.378659, 30.564502)"><g><path d="M 5.46875 -1.359375 L 2.59375 -1.359375 L 2.140625 0 L 0.171875 0 L 2.96875 -7.703125 L 5.140625 -7.703125 L 7.921875 0 L 5.9375 0 Z M 4.984375 -2.8125 L 4.03125 -5.625 L 3.09375 -2.8125 Z M 4.984375 -2.8125 "/></g></g></g><g fill="#090761" fill-opacity="1"><g transform="translate(110.455134, 30.564502)"><g><path d="M 2.5625 -1.453125 L 5.015625 -1.453125 L 5.015625 0 L 0.6875 0 L 0.6875 -7.703125 L 2.5625 -7.703125 Z M 2.5625 -1.453125 "/></g></g></g><g fill="#090761" fill-opacity="1"><g transform="translate(115.682376, 30.564502)"><g><path d="M 5.46875 -1.359375 L 2.59375 -1.359375 L 2.140625 0 L 0.171875 0 L 2.96875 -7.703125 L 5.140625 -7.703125 L 7.921875 0 L 5.9375 0 Z M 4.984375 -2.8125 L 4.03125 -5.625 L 3.09375 -2.8125 Z M 4.984375 -2.8125 "/></g></g></g></svg>